<mxfile host="app.diagrams.net" modified="2024-01-08T12:27:25.007Z" agent="Mozilla/5.0 (Windows NT 10.0; Win64; x64) AppleWebKit/537.36 (KHTML, like Gecko) Chrome/115.0.0.0 Safari/537.36" etag="OBqGjBTedD547agEnpLW" version="22.1.17" type="device">
  <diagram name="Page-1" id="ASFFgxTUzkYgz63kodoO">
    <mxGraphModel dx="645" dy="542" grid="1" gridSize="10" guides="1" tooltips="1" connect="1" arrows="1" fold="1" page="1" pageScale="1" pageWidth="850" pageHeight="1100" math="0" shadow="0">
      <root>
        <mxCell id="0" />
        <mxCell id="1" parent="0" />
        <mxCell id="6RovnkfDbdypBUbvmCxU-1" value="" style="rounded=0;whiteSpace=wrap;html=1;" vertex="1" parent="1">
          <mxGeometry x="220" y="310" width="120" height="60" as="geometry" />
        </mxCell>
        <mxCell id="6RovnkfDbdypBUbvmCxU-3" value="" style="line;strokeWidth=2;html=1;" vertex="1" parent="1">
          <mxGeometry x="220" y="335" width="120" height="10" as="geometry" />
        </mxCell>
        <mxCell id="6RovnkfDbdypBUbvmCxU-4" value="&lt;font style=&quot;font-size: 18px;&quot;&gt;Customer&lt;/font&gt;" style="text;strokeColor=none;fillColor=none;html=1;fontSize=24;fontStyle=1;verticalAlign=middle;align=center;" vertex="1" parent="1">
          <mxGeometry x="225" y="315" width="110" height="20" as="geometry" />
        </mxCell>
        <mxCell id="6RovnkfDbdypBUbvmCxU-5" value="" style="shape=requiredInterface;html=1;verticalLabelPosition=bottom;sketch=0;rotation=-90;" vertex="1" parent="1">
          <mxGeometry x="232.5" y="237.5" width="95" height="60" as="geometry" />
        </mxCell>
        <mxCell id="6RovnkfDbdypBUbvmCxU-7" value="" style="rounded=0;whiteSpace=wrap;html=1;" vertex="1" parent="1">
          <mxGeometry x="590" y="310" width="120" height="60" as="geometry" />
        </mxCell>
        <mxCell id="6RovnkfDbdypBUbvmCxU-8" value="" style="line;strokeWidth=2;html=1;" vertex="1" parent="1">
          <mxGeometry x="590" y="360" width="120" height="10" as="geometry" />
        </mxCell>
        <mxCell id="6RovnkfDbdypBUbvmCxU-9" value="&lt;p style=&quot;line-height: 70%;&quot;&gt;&lt;span style=&quot;font-size: 16px;&quot;&gt;Online Banking&lt;br&gt;System&lt;br&gt;&lt;/span&gt;&lt;/p&gt;" style="text;strokeColor=none;fillColor=none;html=1;fontSize=24;fontStyle=1;verticalAlign=middle;align=center;" vertex="1" parent="1">
          <mxGeometry x="600" y="287.5" width="110" height="105" as="geometry" />
        </mxCell>
        <mxCell id="6RovnkfDbdypBUbvmCxU-11" style="edgeStyle=orthogonalEdgeStyle;rounded=0;orthogonalLoop=1;jettySize=auto;html=1;exitX=0;exitY=0.5;exitDx=0;exitDy=0;entryX=1;entryY=0.5;entryDx=0;entryDy=0;entryPerimeter=0;endArrow=none;endFill=0;" edge="1" parent="1" source="6RovnkfDbdypBUbvmCxU-7" target="6RovnkfDbdypBUbvmCxU-3">
          <mxGeometry relative="1" as="geometry" />
        </mxCell>
        <mxCell id="6RovnkfDbdypBUbvmCxU-13" value="1: Send userid and pasword" style="text;html=1;align=center;verticalAlign=middle;resizable=0;points=[];autosize=1;strokeColor=none;fillColor=none;" vertex="1" parent="1">
          <mxGeometry x="400" y="158" width="170" height="30" as="geometry" />
        </mxCell>
        <mxCell id="6RovnkfDbdypBUbvmCxU-14" value="2: view account details" style="text;html=1;align=center;verticalAlign=middle;resizable=0;points=[];autosize=1;strokeColor=none;fillColor=none;" vertex="1" parent="1">
          <mxGeometry x="415" y="200" width="140" height="30" as="geometry" />
        </mxCell>
        <mxCell id="6RovnkfDbdypBUbvmCxU-15" value="3: withdraw money" style="text;html=1;align=center;verticalAlign=middle;resizable=0;points=[];autosize=1;strokeColor=none;fillColor=none;" vertex="1" parent="1">
          <mxGeometry x="425" y="237.5" width="120" height="30" as="geometry" />
        </mxCell>
        <mxCell id="6RovnkfDbdypBUbvmCxU-16" value="7: check balance" style="text;html=1;align=center;verticalAlign=middle;resizable=0;points=[];autosize=1;strokeColor=none;fillColor=none;" vertex="1" parent="1">
          <mxGeometry x="430" y="280" width="110" height="30" as="geometry" />
        </mxCell>
        <mxCell id="6RovnkfDbdypBUbvmCxU-17" value="" style="endArrow=open;html=1;rounded=0;endFill=0;" edge="1" parent="1">
          <mxGeometry width="50" height="50" relative="1" as="geometry">
            <mxPoint x="430" y="324.40999999999997" as="sourcePoint" />
            <mxPoint x="530" y="324.40999999999997" as="targetPoint" />
          </mxGeometry>
        </mxCell>
        <mxCell id="6RovnkfDbdypBUbvmCxU-18" value="" style="endArrow=none;html=1;rounded=0;startArrow=open;startFill=0;endFill=0;dashed=1;dashPattern=12 12;" edge="1" parent="1">
          <mxGeometry width="50" height="50" relative="1" as="geometry">
            <mxPoint x="430" y="370" as="sourcePoint" />
            <mxPoint x="530" y="370" as="targetPoint" />
          </mxGeometry>
        </mxCell>
        <mxCell id="6RovnkfDbdypBUbvmCxU-19" value="8: show balance" style="text;html=1;align=center;verticalAlign=middle;resizable=0;points=[];autosize=1;strokeColor=none;fillColor=none;" vertex="1" parent="1">
          <mxGeometry x="425" y="410" width="110" height="30" as="geometry" />
        </mxCell>
        <mxCell id="6RovnkfDbdypBUbvmCxU-20" value="9: issue receipt" style="text;html=1;align=center;verticalAlign=middle;resizable=0;points=[];autosize=1;strokeColor=none;fillColor=none;" vertex="1" parent="1">
          <mxGeometry x="430" y="450" width="100" height="30" as="geometry" />
        </mxCell>
        <mxCell id="6RovnkfDbdypBUbvmCxU-21" value="10: Cash dispensed" style="text;html=1;align=center;verticalAlign=middle;resizable=0;points=[];autosize=1;strokeColor=none;fillColor=none;" vertex="1" parent="1">
          <mxGeometry x="420" y="500" width="130" height="30" as="geometry" />
        </mxCell>
      </root>
    </mxGraphModel>
  </diagram>
</mxfile>
